:SAMPLES-PER-SECOND 30
:FULLY-SPECIFIED
:DEGREES
304
root  7.216066826 37.98111142 2.253511196 -167.9390259 -73.18710327 157.8759766
lowerback  11.35299969 3.580709934 0.1768520027
upperback  3.776750088 4.662499905 1.721269965
thorax  -2.535200119 2.245690107 1.065379977
lowerneck  -8.990650177 7.461969852 0.652256012
upperneck  18.87039948 8.708459854 6.155809879
head  6.992320061 4.67373991 2.604789972
lclavicle  0 -9.442270133e-015 7.951389973e-016
lhumerus  6.534840107 -11.08189964 89.73919678
lradius  2.445066892e-031 -2.547644389e-031 133.822998
lwrist  -7.062250077e-031 1.765562519e-031 37.37129974
lhand  -1.496451383e-031 -27.76390076 20.11240005
lfingers  90 7.125020027 -90
lthumb  89.89689403 5.08795885 91.16245106
rclavicle  0 -9.442270133e-015 7.951389973e-016
rhumerus  29.86079979 35.47399902 -79.72039795
rradius  -9.688069104e-032 3.395623243e-031 105.9240036
rwrist  7.062250077e-031 1.059337512e-030 -69.00769806
rhand  -7.920061211e-032 -33.2840004 9.303460121
rfingers  -90 -7.125020027 -90
rthumb  -92.93752616 -24.25625642 -97.11982154
rfemur  -7.292930126 11.98060036 -3.662750006
rtibia  -0 0 62.3132019
rfoot  -4.529430478e-032 -12.96819973 0.7809190154
rtoes  5.373923086 19.29304026 -105.8922705
lfemur  -15.01159954 -4.720779896 -5.292449951
ltibia  -0 0 54.02859879
lfoot  4.432599547e-032 -5.263850212 -4.773180008
ltoes  -4.250644065 -19.5611806 -102.515957
305
root  7.157155285 37.789112 2.333177732 -168.0529785 -73.13269806 157.7579956
lowerback  11.39290047 3.518899918 0.3869799972
upperback  3.640939951 4.609650135 1.618360043
thorax  -2.672049999 2.222379923 0.8419479728
lowerneck  -8.95318985 7.441800117 0.9931489825
upperneck  19.07049942 8.58368969 6.270400047
head  7.067210197 4.644040108 2.583940029
lclavicle  0 -9.442270133e-015 7.951389973e-016
lhumerus  5.623119831 -11.38189983 90.05999756
lradius  2.44577852e-031 -2.546961222e-031 133.8390045
lwrist  -7.062250077e-031 4.413906298e-031 37.3771019
lhand  -1.496451383e-031 -27.76390076 20.11240005
lfingers  90 7.125020027 -90
lthumb  89.89689403 5.08795885 91.16245106
rclavicle  0 -9.442270133e-015 7.951389973e-016
rhumerus  29.68549919 35.29980087 -79.96299744
rradius  -9.800023928e-032 3.392409077e-031 106.112999
rwrist  7.062250077e-031 3.531125038e-031 -69.33409882
rhand  -7.920061211e-032 -33.2840004 9.303460121
rfingers  -90 -7.125020027 -90
rthumb  -92.93752616 -24.25625642 -97.11982154
rfemur  -6.625440121 11.25969982 -3.641880035
rtibia  -0 0 61.6006012
rfoot  -4.776786777e-032 -14.68220043 0.09497659653
rtoes  5.373923086 19.29304026 -105.8922705
lfemur  -13.7258997 -5.104290009 -5.685120106
ltibia  -0 0 53.27959824
lfoot  4.453464761e-032 -7.642409801 -2.401770115
ltoes  -4.250644065 -19.5611806 -102.515957
306
root  7.093533193 37.59888777 2.409933308 -168.3959961 -73.07039642 157.9459839
lowerback  11.30529976 3.455349922 0.4986720085
upperback  3.524970055 4.546959877 1.689339995
thorax  -2.74116993 2.193300009 0.8626189828
lowerneck  -8.898119926 7.428800106 1.227480054
upperneck  19.3003006 8.510399818 6.266170025
head  7.147109985 4.622330189 2.546240091
lclavicle  0 -9.442270133e-015 7.951389973e-016
lhumerus  4.757669926 -11.49750042 90.5483017
lradius  2.446000314e-031 -2.546748221e-031 133.8439941
lwrist  -7.062250077e-031 -1.765562519e-031 37.47669983
lhand  -1.496451383e-031 -27.76390076 20.11240005
lfingers  90 7.125020027 -90
lthumb  89.89689403 5.08795885 91.16245106
rclavicle  0 -9.442270133e-015 7.951389973e-016
rhumerus  29.49629974 35.3022995 -80.01429749
rradius  -9.943814793e-032 3.388222176e-031 106.3560028
rwrist  1.059337512e-030 1.059337512e-030 -69.20420074
rhand  -7.920061211e-032 -33.2840004 9.303460121
rfingers  -90 -7.125020027 -90
rthumb  -92.93752616 -24.25625642 -97.11982154
rfemur  -5.797049999 10.33160019 -3.618789911
rtibia  -0 0 60.99739838
rfoot  -4.643063559e-032 -18.0760994 -2.06588006
rtoes  5.373923086 19.29304026 -105.8922705
lfemur  -12.55799961 -5.280879974 -5.968540192
ltibia  -0 0 52.48410034
lfoot  4.488681864e-032 -10.47280025 -1.753749967
ltoes  -4.250644065 -19.5611806 -102.515957
307
root  7.024311456 37.44177631 2.47388881 -168.9580078 -72.92620087 158.4910278
lowerback  11.05980015 3.448899984 0.499864012
upperback  3.397660017 4.55095005 1.864910007
thorax  -2.753859997 2.198230028 1.052670002
lowerneck  -8.805310249 7.370200157 1.423789978
upperneck  19.54590034 8.378190041 6.267859936
head  7.224880219 4.569690228 2.510159969
lclavicle  0 -9.442270133e-015 7.951389973e-016
lhumerus  4.016059875 -11.53820038 90.95899963
lradius  2.445956228e-031 -2.546790562e-031 133.8430023
lwrist  -1.412450015e-030 1.765562519e-031 37.45930099
lhand  -1.496451383e-031 -27.76390076 20.11240005
lfingers  90 7.125020027 -90
lthumb  89.89689403 5.08795885 91.16245106
rclavicle  0 -9.442270133e-015 7.951389973e-016
rhumerus  29.33659935 35.48529816 -79.85389709
rradius  -1.002716516e-031 3.385764851e-031 106.4970016
rwrist  3.531125038e-031 7.062250077e-031 -69.14289856
rhand  -7.920061211e-032 -33.2840004 9.303460121
rfingers  -90 -7.125020027 -90
rthumb  -92.93752616 -24.25625642 -97.11982154
rfemur  -5.05121994 9.539699554 -3.597440004
rtibia  -0 0 60.46920013
rfoot  -4.671713911e-032 -19.12339973 -4.057889938
rtoes  5.373923086 19.29304026 -105.8922705
lfemur  -11.52499962 -5.222229958 -6.092899799
ltibia  -0 0 51.6515007
lfoot  4.534235835e-032 -13.22929955 -1.636590004
ltoes  -4.250644065 -19.5611806 -102.515957
